<?xml version="1.0"?>
<svg version="1.1" xmlns="http://www.w3.org/2000/svg" width="400px" height="48px" style=""><path fill="#0e74c3" d="M16,34.816c0,4.448-3.616,6.848-7.776,6.848c-1.92,0-4.192-0.352-6.112-1.024c-0.416-0.16-0.544-0.352-0.544-0.608c0-0.128,0-0.256,0.064-0.416l0.672-2.08c0.096-0.32,0.256-0.512,0.576-0.512c0.128,0,0.288,0.032,0.48,0.096c1.504,0.544,3.168,0.96,4.768,0.96c1.728,0,3.68-0.832,3.68-2.848c0-1.472-1.088-2.272-2.336-2.88l-4.16-2.08c-2.272-1.12-3.776-3.008-3.776-5.504c0-3.904,3.84-6.048,7.392-6.048c2.112,0,3.872,0.32,5.728,1.12c0.416,0.192,0.64,0.384,0.64,0.64c0,0.128-0.032,0.256-0.096,0.416l-0.768,1.952c-0.128,0.352-0.32,0.48-0.544,0.48c-0.16,0-0.32-0.064-0.512-0.128c-1.312-0.544-2.944-0.992-4.224-0.992c-1.504,0-3.232,0.64-3.232,2.432c0,1.312,1.216,2.08,2.272,2.592l3.552,1.728c2.528,1.216,4.256,2.912,4.256,5.856z M36.272,40.672c0,0.384-0.256,0.608-0.64,0.608l-1.536,0c-1.664,0-2.4-0.8-2.624-1.888l-0.064,0c-0.8,1.184-2.88,2.272-4.64,2.272c-4.512,0-6.56-3.712-6.56-7.872c0-5.536,3.328-8.448,6.912-8.448c1.696,0,3.296,0.768,4.096,1.856l0.064-0.864c0.032-0.352,0.288-0.576,0.672-0.576l2.24,0c0.416,0,0.672,0.224,0.672,0.704l0,11.104c0,0.448,0.064,0.768,0.192,0.928c0.096,0.096,0.224,0.128,0.384,0.128l0.256,0c0.384,0,0.576,0.128,0.576,0.544l0,1.504z M30.992,36.32l0-6.176c-0.64-0.928-1.952-1.632-3.168-1.632c-1.952,0-3.616,1.664-3.616,5.024c0,2.688,1.024,4.96,3.392,4.96c1.568,0,2.912-1.184,3.392-2.176z M64.128,40.48c0,0.576-0.224,0.8-0.768,0.8l-2.24,0c-0.576,0-0.832-0.224-0.832-0.8l0-8.768c0-1.728-0.448-3.04-2.4-3.04c-1.216,0-2.624,0.64-3.616,1.44c0.064,0.288,0.128,4.576,0.128,5.024l0,5.344c0,0.576-0.224,0.8-0.768,0.8l-2.112,0c-0.576,0-0.832-0.224-0.832-0.8l0-8.768c0-1.696-0.352-3.04-2.304-3.04c-1.248,0-2.528,0.704-3.552,1.6l0,10.208c0,0.576-0.256,0.8-0.8,0.8l-2.24,0c-0.576,0-0.832-0.224-0.832-0.8l0-13.984c0-0.512,0.288-0.736,0.768-0.736l2.08,0c0.48,0,0.768,0.16,0.8,0.608l0.032,0.8c1.312-1.152,3.04-1.824,4.704-1.824c1.952,0,3.328,0.864,4.064,2.08c1.44-1.376,3.52-2.08,5.472-2.08c2.336,0,3.808,1.152,4.48,2.4c0.608,1.184,0.768,2.592,0.768,4.64l0,8.096z M74.384,21.696c0,1.248-1.088,2.016-2.144,2.016s-2.176-0.704-2.176-1.984s1.056-2.048,2.176-2.048c1.088,0,2.144,0.736,2.144,2.016z M74.192,40.48c0,0.576-0.256,0.8-0.8,0.8l-2.24,0c-0.576,0-0.832-0.224-0.832-0.8l0-13.984c0-0.544,0.32-0.736,0.832-0.736l2.24,0c0.512,0,0.8,0.16,0.8,0.736l0,13.984z M94.24,40.448c0,0.544-0.192,0.832-0.768,0.832l-2.304,0c-0.576,0-0.768-0.288-0.768-0.832l0-8.704c0-1.76-0.48-3.008-2.432-3.008c-1.248,0-2.784,0.672-3.776,1.536l0,10.208c0,0.544-0.224,0.8-0.768,0.8l-2.336,0c-0.48,0-0.768-0.256-0.768-0.768l0-13.952c0-0.512,0.224-0.8,0.8-0.8l2.08,0c0.448,0,0.736,0.128,0.768,0.608l0.032,0.832c1.472-1.184,3.328-1.856,5.184-1.856c3.584,0,5.056,2.24,5.056,5.728l0,9.376z"/><path fill="#f39c12" d="M126.336,39.712c0,0.288-0.128,0.48-0.512,0.64c-2.112,0.864-4.032,1.312-6.368,1.312c-6.752,0-10.048-4.768-10.048-11.36c0-6.56,3.936-11.584,10.368-11.584c2.208,0,4.192,0.448,6.016,1.344c0.384,0.192,0.512,0.352,0.512,0.544c0,0.128-0.032,0.256-0.096,0.416l-0.736,2.016c-0.096,0.288-0.256,0.416-0.448,0.416c-0.096,0-0.224-0.064-0.352-0.128c-1.6-0.832-3.04-1.152-4.64-1.152c-4.448,0-6.176,4.096-6.176,7.968c0,4.928,2.304,8.064,6.24,8.064c1.536,0,3.104-0.352,4.608-1.024c0.16-0.064,0.288-0.128,0.384-0.128c0.224,0,0.384,0.16,0.512,0.48l0.64,1.728c0.064,0.16,0.096,0.32,0.096,0.448z M144.816,40.224c0,5.184-2.208,8.064-7.584,8.064c-1.568,0-3.2-0.32-4.736-0.992c-0.352-0.16-0.512-0.352-0.512-0.64c0-0.16,0.064-0.288,0.096-0.416l0.448-1.408c0.128-0.352,0.256-0.576,0.48-0.576c0.16,0,0.32,0.064,0.48,0.128c1.152,0.48,2.464,0.832,3.584,0.832c3.2,0,3.872-1.696,3.872-4.256l0-1.28c-0.96,0.928-2.752,1.632-4.16,1.632c-1.984,0-3.584-0.64-4.704-1.824c-1.344-1.376-2.016-3.456-2.016-5.792c0-4.288,2.496-8.32,7.136-8.32c0.768,0,1.568,0.192,2.304,0.512c0.608,0.256,1.248,0.736,1.632,1.28l0.064-0.832c0.032-0.416,0.256-0.576,0.736-0.576l2.112,0c0.576,0,0.768,0.224,0.768,0.768l0,13.696z M140.944,36.64l0-6.592c-0.64-0.864-1.888-1.568-3.104-1.568c-0.992,0-1.792,0.384-2.368,0.928c-0.992,0.96-1.376,2.592-1.376,4.064c0,1.408,0.32,2.912,1.28,3.84c0.576,0.576,1.408,0.864,2.272,0.864c1.248,0,2.656-0.736,3.296-1.536z M161.088,36.704c0,3.36-2.912,4.96-6.176,4.96c-1.664,0-3.488-0.48-4.928-1.12c-0.288-0.128-0.384-0.32-0.384-0.512c0-0.096,0.032-0.192,0.064-0.288l0.512-1.632c0.096-0.32,0.256-0.448,0.448-0.448c0.096,0,0.192,0,0.352,0.064c1.408,0.576,2.912,0.992,4.032,0.992c1.408,0,2.368-0.64,2.368-1.696c0-0.896-0.608-1.376-1.92-1.888l-2.528-0.96c-1.824-0.672-3.296-2.08-3.296-4.256c0-3.136,2.944-4.576,5.792-4.576c1.536,0,3.04,0.256,4.64,0.96c0.256,0.128,0.384,0.256,0.384,0.448c0,0.096-0.032,0.192-0.064,0.32l-0.544,1.728c-0.064,0.224-0.224,0.352-0.448,0.352c-0.096,0-0.224-0.032-0.32-0.064c-1.056-0.416-2.432-0.768-3.456-0.768c-1.344,0-2.016,0.736-2.016,1.472c0,0.704,0.352,1.152,1.568,1.632l2.88,1.184c1.696,0.704,3.04,2.016,3.04,4.096z"/></svg>
